<svg viewBox="0 0 200 200" xmlns="http://www.w3.org/2000/svg">
  <!-- Fondo institucional -->
  <rect width="200" height="200" fill="#1C3D50"/>

  <!-- Nodo Vago centrado arriba -->
  <g transform="translate(86, 20) scale(0.7)">
    <!-- Tronco vertical -->
    <path d="M40,6 C39.4,28 40.6,62 40,102"
      stroke="#F4EFE6" stroke-width="2.2" fill="none" stroke-linecap="round"/>
    <!-- Ramificaciones superiores -->
    <path d="M40,24 C36.5,23 31,21 25,18.5"
      stroke="#F4EFE6" stroke-width="1.6" fill="none" stroke-linecap="round"/>
    <path d="M40,24 C43.5,23 49,21 55,18.5"
      stroke="#F4EFE6" stroke-width="1.6" fill="none" stroke-linecap="round"/>
    <!-- Ramificación media -->
    <path d="M40,52 C44.5,51 51,53 57.5,56.5"
      stroke="#F4EFE6" stroke-width="1.6" fill="none" stroke-linecap="round"/>
    <!-- Ramificaciones inferiores -->
    <path d="M40,76 C36,77 30,80 23.5,83"
      stroke="#F4EFE6" stroke-width="1.6" fill="none" stroke-linecap="round"/>
    <path d="M40,76 C44,77 50,80 56.5,83"
      stroke="#F4EFE6" stroke-width="1.6" fill="none" stroke-linecap="round"/>
    <!-- Nodos -->
    <circle cx="40" cy="24" r="3" fill="#F4EFE6"/>
    <circle cx="40" cy="52" r="3" fill="#F4EFE6"/>
    <circle cx="40" cy="76" r="3" fill="#F4EFE6"/>
  </g>

  <!-- Texto IEN -->
  <text
    x="100"
    y="155"
    text-anchor="middle"
    font-family="Georgia, serif"
    font-size="42"
    font-weight="400"
    fill="#F4EFE6"
    letter-spacing="12"
  >IEN</text>

  <!-- Línea teal -->
  <line x1="60" y1="168" x2="140" y2="168" stroke="#2B7A8B" stroke-width="1.5"/>

  <!-- Texto NEUROBIENESTAR -->
  <text
    x="100"
    y="184"
    text-anchor="middle"
    font-family="Georgia, serif"
    font-size="9"
    fill="rgba(244,239,230,0.45)"
    letter-spacing="3"
  >NEUROBIENESTAR</text>
</svg>
